<?xml version="1.0" standalone="no"?>
<!DOCTYPE svg PUBLIC "-//W3C//DTD SVG 20010904//EN"
 "http://www.w3.org/TR/2001/REC-SVG-20010904/DTD/svg10.dtd">
<svg version="1.0" xmlns="http://www.w3.org/2000/svg"
 width="268.000000pt" height="268.000000pt" viewBox="0 0 268.000000 268.000000"
 preserveAspectRatio="xMidYMid meet">
<metadata>
Created by potrace 1.14, written by Peter Selinger 2001-2017
</metadata>
<g transform="translate(0.000000,268.000000) scale(0.100000,-0.100000)"
fill="#000000" stroke="none">
<path d="M136 2620 c-34 -32 -79 -87 -99 -122 l-37 -63 0 -1090 0 -1091 36
-60 c41 -69 143 -176 161 -170 7 3 12 0 10 -7 -1 -9 249 -13 1130 -15 l1133
-2 67 64 c38 35 85 92 106 127 l37 64 0 1088 c0 1075 0 1088 -20 1128 -12 22
-25 37 -30 34 -5 -3 -7 1 -4 9 4 10 -19 41 -68 91 l-74 75 -1143 0 -1143 0
-62 -60z"/>
</g>
</svg>
