<?xml version="1.0" encoding="utf-8"?>
<!-- Generator: Adobe Illustrator 23.0.4, SVG Export Plug-In . SVG Version: 6.00 Build 0)  -->
<svg version="1.1" id="Layer_1" xmlns="http://www.w3.org/2000/svg" xmlns:xlink="http://www.w3.org/1999/xlink" x="0px" y="0px"
	 viewBox="0 0 158.4 53" style="enable-background:new 0 0 158.4 53;" xml:space="preserve">
<style type="text/css">
	.st0{fill-rule:evenodd;clip-rule:evenodd;fill:#8362A9;}
	.st1{fill-rule:evenodd;clip-rule:evenodd;fill:#4D2D7E;}
	.st2{fill-rule:evenodd;clip-rule:evenodd;fill:#BE90C1;}
</style>
<g>
	<path class="st0" d="M157.3,34.3c-0.6,0.5-1.4,0.7-2.2,0.7c-1.5,0-2.3-0.9-2.3-2.5v-8h4.5v-3.1h-4.5v-3.8h-3.9v3.8h-2.8v3.1h2.8
		v8.1c0,3.7,2.1,5.6,5.8,5.6c1.4,0,2.8-0.4,3.8-1.1L157.3,34.3L157.3,34.3z M139.3,38.1h4.1v-22h-4.1V38.1z"/>
	<path class="st1" d="M132.3,38.1h4.8l-7.7-9.7l7-7h-4.7l-8.1,7.5V14.8h-3.9v23.3h3.9v-4.4l2.9-2.8L132.3,38.1L132.3,38.1z
		 M108.4,21.1c-2.4,0-4.5,0.8-5.8,2.4v-2.2h-3.7v16.8h3.9v-8.5c0-3.4,1.9-5.1,4.7-5.1c2.5,0,4,1.4,4,4.4v9.1h3.9v-9.6
		C115.4,23.4,112.4,21.1,108.4,21.1L108.4,21.1z M86.4,35.4c-2,0-3.2-0.9-3.2-2.3c0-1.2,0.7-2.2,3.4-2.2h4v1.9
		C90,34.5,88.3,35.4,86.4,35.4L86.4,35.4z M86.9,21.1c-2.7,0-5.3,0.7-7.1,2.1l1.5,2.9c1.3-1,3.2-1.7,5.1-1.7c2.8,0,4.2,1.3,4.2,3.6
		v0.3h-4.3c-5.1,0-7,2.2-7,5c0,2.9,2.4,5,6.2,5c2.5,0,4.3-0.8,5.3-2.3v2h3.7v-9.8C94.5,23.4,91.7,21.1,86.9,21.1L86.9,21.1z
		 M73.1,23.9c0,2.8-1.9,4.4-5.4,4.4h-4.8v-8.8h4.8C71.2,19.5,73.1,21.1,73.1,23.9L73.1,23.9z M77.5,38.1l-5.1-7.2
		c3-1.2,4.7-3.6,4.7-6.9c0-4.9-3.6-7.8-9.4-7.8h-9v22h4.1v-6.4h5c0.3,0,0.6,0,0.8,0l4.5,6.4H77.5z"/>
	<polygon class="st0" points="17.5,23 30.8,15.4 30.8,0 17.5,7.7 	"/>
	<polygon class="st2" points="32.5,14.5 34,15.4 17.5,24.9 14.2,23 15.8,22.2 15.8,19.7 10,23 17.5,27.3 38.2,15.4 32.5,12.1 	"/>
	<polygon class="st1" points="48.2,35.3 48.2,15.4 17.5,33.1 0,23 0,43 17.5,53 	"/>
</g>
</svg>
